<?xml version="1.0" encoding="UTF-8" ?>
<svg version="1.1" viewBox="0 0 8 8" xmlns="http://www.w3.org/2000/svg" shape-rendering="crispEdges">
<rect x="1" y="2" width="1" height="1"  />
<rect x="2" y="2" width="1" height="1"  />
<rect x="3" y="2" width="1" height="1"  />
<rect x="4" y="2" width="1" height="1"  />
<rect x="5" y="2" width="1" height="1"  />
<rect x="6" y="2" width="1" height="1"  />
<rect x="1" y="3" width="1" height="1"  />
<rect x="2" y="3" width="1" height="1"  />
<rect x="3" y="3" width="1" height="1"  />
<rect x="4" y="3" width="1" height="1"  />
<rect x="5" y="3" width="1" height="1"  />
<rect x="6" y="3" width="1" height="1"  />
<rect x="2" y="4" width="1" height="1"  />
<rect x="3" y="4" width="1" height="1"  />
<rect x="4" y="4" width="1" height="1"  />
<rect x="5" y="4" width="1" height="1"  />
<rect x="3" y="5" width="1" height="1"  />
<rect x="4" y="5" width="1" height="1"  />
</svg>